<svg width="201" height="202" viewBox="0 0 201 202" fill="none" xmlns="http://www.w3.org/2000/svg">
<path d="M0 14.0348C0 6.28924 6.28921 0.0156062 14.0347 0.0348261L187.035 0.464112C194.753 0.483264 201 6.74565 201 14.4641V108.836C201 112.597 199.487 116.2 196.801 118.833L117.506 196.572C114.935 199.093 111.491 200.527 107.89 200.574L14.185 201.813C6.38133 201.916 0 195.618 0 187.814V14.0348Z" fill="#2376FA"/>
<path d="M24 94.5C24 90.0817 27.5817 86.5 32 86.5H80C84.4183 86.5 88 90.0817 88 94.5V147.493C88 149.729 87.065 151.862 85.4214 153.376L64.7973 172.383C63.3201 173.744 61.3848 174.5 59.3759 174.5H32C27.5817 174.5 24 170.918 24 166.5V94.5Z" fill="white"/>
<path d="M86 52.7697C86 50.614 86.87 48.5495 88.4129 47.044L109.221 26.7396C110.684 25.3114 112.639 24.498 114.684 24.4663L168.876 23.626C173.342 23.5567 177 27.1582 177 31.625V80.5C177 84.9183 173.418 88.5 169 88.5H94C89.5817 88.5 86 84.9183 86 80.5V52.7697Z" fill="white"/>
</svg>
